{
    "asset" : {
        "generator" : "Khronos glTF Blender I/O v3.4.50",
        "version" : "2.0"
    },
    "scene" : 0,
    "scenes" : [
        {
            "name" : "Scene",
            "nodes" : [
                0
            ]
        }
    ],
    "nodes" : [
        {
            "mesh" : 0,
            "name" : "bandana",
            "rotation" : [
                0,
                0.3826834559440613,
                0,
                0.9238795638084412
            ],
            "translation" : [
                0,
                0.230734720826149,
                0
            ]
        }
    ],
    "meshes" : [
        {
            "name" : "plane",
            "primitives" : [
                {
                    "attributes" : {
                        "POSITION" : 0,
                        "TEXCOORD_0" : 1,
                        "NORMAL" : 2
                    },
                    "indices" : 3
                }
            ]
        }
    ],
    "accessors" : [
        {
            "bufferView" : 0,
            "componentType" : 5126,
            "count" : 8706,
            "max" : [
                0.3900670111179352,
                0.4218871593475342,
                0.4103603959083557
            ],
            "min" : [
                -0.40126729011535645,
                -0.9671943187713623,
                -0.4029577374458313
            ],
            "type" : "VEC3"
        },
        {
            "bufferView" : 1,
            "componentType" : 5126,
            "count" : 8706,
            "type" : "VEC2"
        },
        {
            "bufferView" : 2,
            "componentType" : 5126,
            "count" : 8706,
            "type" : "VEC3"
        },
        {
            "bufferView" : 3,
            "componentType" : 5123,
            "count" : 52224,
            "type" : "SCALAR"
        }
    ],
    "bufferViews" : [
        {
            "buffer" : 0,
            "byteLength" : 104472,
            "byteOffset" : 0,
            "target" : 34962
        },
        {
            "buffer" : 0,
            "byteLength" : 69648,
            "byteOffset" : 104472,
            "target" : 34962
        },
        {
            "buffer" : 0,
            "byteLength" : 104472,
            "byteOffset" : 174120,
            "target" : 34962
        },
        {
            "buffer" : 0,
            "byteLength" : 104448,
            "byteOffset" : 278592,
            "target" : 34963
        }
    ],
    "buffers" : [
        {
            "byteLength" : 383040,
            "uri" : "data:application/octet-stream;base64,"
        }
    ]
}
