{
    "asset" : {
        "generator" : "Khronos glTF Blender I/O v3.4.50",
        "version" : "2.0"
    },
    "scene" : 0,
    "scenes" : [
        {
            "name" : "Scene",
            "nodes" : [
                0,
                1
            ]
        }
    ],
    "nodes" : [
        {
            "mesh" : 0,
            "name" : "Soda 1_Metal_0",
            "rotation" : [
                -0.005277144256979227,
                -0.7076005935668945,
                -0.7065731287002563,
                0.005284817423671484
            ],
            "scale" : [
                0.49364355206489563,
                0.49364346265792847,
                0.49364349246025085
            ]
        },
        {
            "mesh" : 1,
            "name" : "Soda 1_Soda_0",
            "rotation" : [
                -0.005277144256979227,
                -0.7076005935668945,
                -0.7065731287002563,
                0.005284817423671484
            ],
            "scale" : [
                0.49364355206489563,
                0.49364346265792847,
                0.49364349246025085
            ]
        }
    ],
    "materials" : [
        {
            "doubleSided" : true,
            "name" : "Metal",
            "pbrMetallicRoughness" : {
                "baseColorFactor" : [
                    0.800000011920929,
                    0.800000011920929,
                    0.800000011920929,
                    1
                ],
                "roughnessFactor" : 0.20178726315498352
            }
        },
        {
            "doubleSided" : true,
            "name" : "Material.001",
            "pbrMetallicRoughness" : {
                "roughnessFactor" : 0
            }
        }
    ],
    "meshes" : [
        {
            "name" : "Soda 1_Metal_0",
            "primitives" : [
                {
                    "attributes" : {
                        "POSITION" : 0,
                        "TEXCOORD_0" : 1,
                        "NORMAL" : 2
                    },
                    "indices" : 3,
                    "material" : 0
                }
            ]
        },
        {
            "name" : "Soda 1_Soda_0",
            "primitives" : [
                {
                    "attributes" : {
                        "POSITION" : 4,
                        "TEXCOORD_0" : 5,
                        "TEXCOORD_1" : 6,
                        "TEXCOORD_2" : 7,
                        "NORMAL" : 8
                    },
                    "indices" : 9,
                    "material" : 1
                }
            ]
        }
    ],
    "accessors" : [
        {
            "bufferView" : 0,
            "componentType" : 5126,
            "count" : 2864,
            "max" : [
                2.375847578048706,
                2.375847339630127,
                4.813327312469482
            ],
            "min" : [
                -2.375847578048706,
                -2.3758485317230225,
                -4.5180888175964355
            ],
            "type" : "VEC3"
        },
        {
            "bufferView" : 1,
            "componentType" : 5126,
            "count" : 2864,
            "type" : "VEC2"
        },
        {
            "bufferView" : 2,
            "componentType" : 5126,
            "count" : 2864,
            "type" : "VEC3"
        },
        {
            "bufferView" : 3,
            "componentType" : 5123,
            "count" : 6522,
            "type" : "SCALAR"
        },
        {
            "bufferView" : 4,
            "componentType" : 5126,
            "count" : 782,
            "max" : [
                2.4178102016448975,
                2.4178099632263184,
                4.454676628112793
            ],
            "min" : [
                -2.4178102016448975,
                -2.417811155319214,
                -3.9849162101745605
            ],
            "type" : "VEC3"
        },
        {
            "bufferView" : 5,
            "componentType" : 5126,
            "count" : 782,
            "type" : "VEC2"
        },
        {
            "bufferView" : 6,
            "componentType" : 5126,
            "count" : 782,
            "type" : "VEC2"
        },
        {
            "bufferView" : 7,
            "componentType" : 5126,
            "count" : 782,
            "type" : "VEC2"
        },
        {
            "bufferView" : 8,
            "componentType" : 5126,
            "count" : 782,
            "type" : "VEC3"
        },
        {
            "bufferView" : 9,
            "componentType" : 5123,
            "count" : 2160,
            "type" : "SCALAR"
        }
    ],
    "bufferViews" : [
        {
            "buffer" : 0,
            "byteLength" : 34368,
            "byteOffset" : 0,
            "target" : 34962
        },
        {
            "buffer" : 0,
            "byteLength" : 22912,
            "byteOffset" : 34368,
            "target" : 34962
        },
        {
            "buffer" : 0,
            "byteLength" : 34368,
            "byteOffset" : 57280,
            "target" : 34962
        },
        {
            "buffer" : 0,
            "byteLength" : 13044,
            "byteOffset" : 91648,
            "target" : 34963
        },
        {
            "buffer" : 0,
            "byteLength" : 9384,
            "byteOffset" : 104692,
            "target" : 34962
        },
        {
            "buffer" : 0,
            "byteLength" : 6256,
            "byteOffset" : 114076,
            "target" : 34962
        },
        {
            "buffer" : 0,
            "byteLength" : 6256,
            "byteOffset" : 120332,
            "target" : 34962
        },
        {
            "buffer" : 0,
            "byteLength" : 6256,
            "byteOffset" : 126588,
            "target" : 34962
        },
        {
            "buffer" : 0,
            "byteLength" : 9384,
            "byteOffset" : 132844,
            "target" : 34962
        },
        {
            "buffer" : 0,
            "byteLength" : 4320,
            "byteOffset" : 142228,
            "target" : 34963
        }
    ],
    "buffers" : [
        {
            "byteLength" : 146548,
            "uri" : "data:application/octet-stream;base64,"
        }
    ]
}
