{
    "asset" : {
        "generator" : "Khronos glTF Blender I/O v3.4.50",
        "version" : "2.0"
    },
    "scene" : 0,
    "scenes" : [
        {
            "name" : "Scene",
            "nodes" : [
                0,
                1
            ]
        }
    ],
    "nodes" : [
        {
            "mesh" : 0,
            "name" : "legs",
            "rotation" : [
                -0.5,
                0.5,
                0.5,
                0.5
            ],
            "scale" : [
                -0.0075223310850560665,
                -0.0075223310850560665,
                -0.0075223310850560665
            ],
            "translation" : [
                0.0028790049254894257,
                -0.09441232681274414,
                0.23012688755989075
            ]
        },
        {
            "mesh" : 1,
            "name" : "plastic",
            "scale" : [
                0.0075223310850560665,
                0.0075223310850560665,
                0.0075223310850560665
            ],
            "translation" : [
                0.005801990628242493,
                0.09832468628883362,
                0.12313379347324371
            ]
        }
    ],
    "materials" : [
        {
            "doubleSided" : true,
            "name" : "Material.002",
            "pbrMetallicRoughness" : {
                "baseColorFactor" : [
                    0.3988010883331299,
                    0.3988010883331299,
                    0.3988010883331299,
                    1
                ],
                "metallicFactor" : 0.581818163394928,
                "roughnessFactor" : 0.2181818187236786
            }
        },
        {
            "doubleSided" : true,
            "name" : "Material.001",
            "pbrMetallicRoughness" : {
                "baseColorFactor" : [
                    0.8000000715255737,
                    0.02058606967329979,
                    0.025541674345731735,
                    1
                ],
                "metallicFactor" : 0.23181818425655365,
                "roughnessFactor" : 0.37727272510528564
            }
        }
    ],
    "meshes" : [
        {
            "name" : "legs.001",
            "primitives" : [
                {
                    "attributes" : {
                        "POSITION" : 0,
                        "NORMAL" : 1
                    },
                    "indices" : 2,
                    "material" : 0
                }
            ]
        },
        {
            "name" : "plastic",
            "primitives" : [
                {
                    "attributes" : {
                        "POSITION" : 3,
                        "TEXCOORD_0" : 4,
                        "NORMAL" : 5
                    },
                    "indices" : 6,
                    "material" : 1
                }
            ]
        }
    ],
    "accessors" : [
        {
            "bufferView" : 0,
            "componentType" : 5126,
            "count" : 936,
            "max" : [
                30.380939483642578,
                29.367504119873047,
                41.05832290649414
            ],
            "min" : [
                -50.11099624633789,
                -29.202136993408203,
                -7.62199068069458
            ],
            "type" : "VEC3"
        },
        {
            "bufferView" : 1,
            "componentType" : 5126,
            "count" : 936,
            "type" : "VEC3"
        },
        {
            "bufferView" : 2,
            "componentType" : 5123,
            "count" : 3912,
            "type" : "SCALAR"
        },
        {
            "bufferView" : 3,
            "componentType" : 5126,
            "count" : 7402,
            "max" : [
                35.19343566894531,
                38.73695755004883,
                39.8154296875
            ],
            "min" : [
                -35.193519592285156,
                -20.89593505859375,
                -35.93255615234375
            ],
            "type" : "VEC3"
        },
        {
            "bufferView" : 4,
            "componentType" : 5126,
            "count" : 7402,
            "type" : "VEC2"
        },
        {
            "bufferView" : 5,
            "componentType" : 5126,
            "count" : 7402,
            "type" : "VEC3"
        },
        {
            "bufferView" : 6,
            "componentType" : 5123,
            "count" : 38016,
            "type" : "SCALAR"
        }
    ],
    "bufferViews" : [
        {
            "buffer" : 0,
            "byteLength" : 11232,
            "byteOffset" : 0,
            "target" : 34962
        },
        {
            "buffer" : 0,
            "byteLength" : 11232,
            "byteOffset" : 11232,
            "target" : 34962
        },
        {
            "buffer" : 0,
            "byteLength" : 7824,
            "byteOffset" : 22464,
            "target" : 34963
        },
        {
            "buffer" : 0,
            "byteLength" : 88824,
            "byteOffset" : 30288,
            "target" : 34962
        },
        {
            "buffer" : 0,
            "byteLength" : 59216,
            "byteOffset" : 119112,
            "target" : 34962
        },
        {
            "buffer" : 0,
            "byteLength" : 88824,
            "byteOffset" : 178328,
            "target" : 34962
        },
        {
            "buffer" : 0,
            "byteLength" : 76032,
            "byteOffset" : 267152,
            "target" : 34963
        }
    ],
    "buffers" : [
        {
            "byteLength" : 343184,
            "uri" : "data:application/octet-stream;base64,"
        }
    ]
}
