{
    "asset" : {
        "generator" : "Khronos glTF Blender I/O v3.4.50",
        "version" : "2.0"
    },
    "scene" : 0,
    "scenes" : [
        {
            "name" : "Scene",
            "nodes" : [
                0,
                1,
                2
            ]
        }
    ],
    "nodes" : [
        {
            "mesh" : 0,
            "name" : "base",
            "rotation" : [
                0.7061059474945068,
                0,
                0,
                0.7081062197685242
            ],
            "scale" : [
                6.446559906005859,
                4.020103454589844,
                6.446558475494385
            ],
            "translation" : [
                0.0054160431027412415,
                0.0005203466862440109,
                0.3520556688308716
            ]
        },
        {
            "mesh" : 1,
            "name" : "art",
            "rotation" : [
                0.7061914801597595,
                0.003171063493937254,
                -0.004950861446559429,
                0.7079964876174927
            ],
            "scale" : [
                6.4467453956604,
                5.508905410766602,
                6.44655704498291
            ],
            "translation" : [
                0.12737567722797394,
                0.09593582153320312,
                0.47195902466773987
            ]
        },
        {
            "mesh" : 2,
            "name" : "capsule",
            "rotation" : [
                -0.007010478060692549,
                0,
                -0.9999754428863525,
                0
            ],
            "scale" : [
                10.530413627624512,
                10.889107704162598,
                11.908963203430176
            ],
            "translation" : [
                -0.002256292849779129,
                -0.0042434390634298325,
                -0.2270018458366394
            ]
        }
    ],
    "materials" : [
        {
            "doubleSided" : true,
            "name" : "Material.002",
            "pbrMetallicRoughness" : {
                "baseColorFactor" : [
                    0.800000011920929,
                    0.800000011920929,
                    0.800000011920929,
                    1
                ],
                "metallicFactor" : 0,
                "roughnessFactor" : 0.5
            }
        },
        {
            "doubleSided" : true,
            "name" : "Material.001",
            "pbrMetallicRoughness" : {
                "baseColorFactor" : [
                    0.800000011920929,
                    0.800000011920929,
                    0.800000011920929,
                    1
                ],
                "metallicFactor" : 0,
                "roughnessFactor" : 0.5
            }
        },
        {
            "doubleSided" : true,
            "name" : "Material.003",
            "pbrMetallicRoughness" : {
                "baseColorFactor" : [
                    0.800000011920929,
                    0.800000011920929,
                    0.800000011920929,
                    1
                ],
                "metallicFactor" : 0,
                "roughnessFactor" : 0.5
            }
        }
    ],
    "meshes" : [
        {
            "name" : "Mesh_0.002",
            "primitives" : [
                {
                    "attributes" : {
                        "POSITION" : 0,
                        "TEXCOORD_0" : 1,
                        "NORMAL" : 2
                    },
                    "indices" : 3,
                    "material" : 0
                }
            ]
        },
        {
            "name" : "Mesh_1.002",
            "primitives" : [
                {
                    "attributes" : {
                        "POSITION" : 4,
                        "TEXCOORD_0" : 5,
                        "NORMAL" : 6
                    },
                    "indices" : 7,
                    "material" : 1
                }
            ]
        },
        {
            "name" : "Mesh_6.002",
            "primitives" : [
                {
                    "attributes" : {
                        "POSITION" : 8,
                        "TEXCOORD_0" : 9,
                        "NORMAL" : 10
                    },
                    "indices" : 11,
                    "material" : 2
                }
            ]
        }
    ],
    "accessors" : [
        {
            "bufferView" : 0,
            "componentType" : 5126,
            "count" : 230,
            "max" : [
                0.11026930809020996,
                0.018076933920383453,
                0.11026930809020996
            ],
            "min" : [
                -0.11026930809020996,
                -0.17207419872283936,
                -0.11026930063962936
            ],
            "type" : "VEC3"
        },
        {
            "bufferView" : 1,
            "componentType" : 5126,
            "count" : 230,
            "type" : "VEC2"
        },
        {
            "bufferView" : 2,
            "componentType" : 5126,
            "count" : 230,
            "type" : "VEC3"
        },
        {
            "bufferView" : 3,
            "componentType" : 5123,
            "count" : 252,
            "type" : "SCALAR"
        },
        {
            "bufferView" : 4,
            "componentType" : 5126,
            "count" : 16538,
            "max" : [
                0.09173144400119781,
                0.007316552102565765,
                0.1252012848854065
            ],
            "min" : [
                -0.12880736589431763,
                -0.010761253535747528,
                -0.09533757716417313
            ],
            "type" : "VEC3"
        },
        {
            "bufferView" : 5,
            "componentType" : 5126,
            "count" : 16538,
            "type" : "VEC2"
        },
        {
            "bufferView" : 6,
            "componentType" : 5126,
            "count" : 16538,
            "type" : "VEC3"
        },
        {
            "bufferView" : 7,
            "componentType" : 5123,
            "count" : 29622,
            "type" : "SCALAR"
        },
        {
            "bufferView" : 8,
            "componentType" : 5126,
            "count" : 3066,
            "max" : [
                0.007526111789047718,
                0.03763055428862572,
                0.0075112609192729
            ],
            "min" : [
                -0.007526111789047718,
                -0.03763055428862572,
                -0.007511259987950325
            ],
            "type" : "VEC3"
        },
        {
            "bufferView" : 9,
            "componentType" : 5126,
            "count" : 3066,
            "type" : "VEC2"
        },
        {
            "bufferView" : 10,
            "componentType" : 5126,
            "count" : 3066,
            "type" : "VEC3"
        },
        {
            "bufferView" : 11,
            "componentType" : 5123,
            "count" : 15900,
            "type" : "SCALAR"
        }
    ],
    "bufferViews" : [
        {
            "buffer" : 0,
            "byteLength" : 2760,
            "byteOffset" : 0,
            "target" : 34962
        },
        {
            "buffer" : 0,
            "byteLength" : 1840,
            "byteOffset" : 2760,
            "target" : 34962
        },
        {
            "buffer" : 0,
            "byteLength" : 2760,
            "byteOffset" : 4600,
            "target" : 34962
        },
        {
            "buffer" : 0,
            "byteLength" : 504,
            "byteOffset" : 7360,
            "target" : 34963
        },
        {
            "buffer" : 0,
            "byteLength" : 198456,
            "byteOffset" : 7864,
            "target" : 34962
        },
        {
            "buffer" : 0,
            "byteLength" : 132304,
            "byteOffset" : 206320,
            "target" : 34962
        },
        {
            "buffer" : 0,
            "byteLength" : 198456,
            "byteOffset" : 338624,
            "target" : 34962
        },
        {
            "buffer" : 0,
            "byteLength" : 59244,
            "byteOffset" : 537080,
            "target" : 34963
        },
        {
            "buffer" : 0,
            "byteLength" : 36792,
            "byteOffset" : 596324,
            "target" : 34962
        },
        {
            "buffer" : 0,
            "byteLength" : 24528,
            "byteOffset" : 633116,
            "target" : 34962
        },
        {
            "buffer" : 0,
            "byteLength" : 36792,
            "byteOffset" : 657644,
            "target" : 34962
        },
        {
            "buffer" : 0,
            "byteLength" : 31800,
            "byteOffset" : 694436,
            "target" : 34963
        }
    ],
    "buffers" : [
        {
            "byteLength" : 726236,
            "uri" : "data:application/octet-stream;base64,"
        }
    ]
}
