{
    "asset" : {
        "generator" : "Khronos glTF Blender I/O v3.4.50",
        "version" : "2.0"
    },
    "scene" : 0,
    "scenes" : [
        {
            "name" : "Scene",
            "nodes" : [
                0,
                1,
                2,
                3,
                4
            ]
        }
    ],
    "nodes" : [
        {
            "mesh" : 0,
            "name" : "base",
            "rotation" : [
                0.7061059474945068,
                0,
                0,
                0.7081062197685242
            ],
            "scale" : [
                6.446559906005859,
                4.020103454589844,
                6.446558475494385
            ],
            "translation" : [
                0.0054160431027412415,
                0.0005203466862440109,
                0.3520556688308716
            ]
        },
        {
            "mesh" : 1,
            "name" : "capsule",
            "rotation" : [
                -0.007010478060692549,
                0,
                -0.9999754428863525,
                0
            ],
            "scale" : [
                10.530413627624512,
                10.889107704162598,
                11.908963203430176
            ],
            "translation" : [
                -0.002256292849779129,
                -0.0042434390634298325,
                -0.2270018458366394
            ]
        },
        {
            "mesh" : 2,
            "name" : "border",
            "rotation" : [
                0.7071056962013245,
                -0.0012124578934162855,
                0.001212426694110036,
                0.7071057558059692
            ],
            "scale" : [
                7.069355487823486,
                10.387624740600586,
                7.069355010986328
            ],
            "translation" : [
                0.005703601986169815,
                0.0008107619360089302,
                0.3484079837799072
            ]
        },
        {
            "mesh" : 3,
            "name" : "flowers",
            "rotation" : [
                0.7071056365966797,
                -0.0012124578934162855,
                0.0012124264612793922,
                0.707105815410614
            ],
            "scale" : [
                7.213627338409424,
                10.820442199707031,
                7.213627815246582
            ],
            "translation" : [
                0.0055355168879032135,
                0.0008107619942165911,
                0.3974077105522156
            ]
        },
        {
            "mesh" : 4,
            "name" : "fill",
            "rotation" : [
                -0.0012124269269406796,
                0.7071056962013245,
                0.7071058750152588,
                0.001212426577694714
            ],
            "scale" : [
                7.213628768920898,
                9.017036437988281,
                7.213627815246582
            ],
            "translation" : [
                0.0055355168879032135,
                0.0008107619942165911,
                0.3974077105522156
            ]
        }
    ],
    "materials" : [
        {
            "doubleSided" : true,
            "name" : "Material.002",
            "pbrMetallicRoughness" : {
                "baseColorFactor" : [
                    0.800000011920929,
                    0.800000011920929,
                    0.800000011920929,
                    1
                ],
                "metallicFactor" : 0,
                "roughnessFactor" : 0.5
            }
        },
        {
            "doubleSided" : true,
            "name" : "Material.003",
            "pbrMetallicRoughness" : {
                "baseColorFactor" : [
                    0.800000011920929,
                    0.800000011920929,
                    0.800000011920929,
                    1
                ],
                "metallicFactor" : 0,
                "roughnessFactor" : 0.5
            }
        },
        {
            "doubleSided" : true,
            "name" : "Material_0",
            "pbrMetallicRoughness" : {
                "baseColorFactor" : [
                    0.0235294122248888,
                    0.4745098054409027,
                    0.40784314274787903,
                    1
                ],
                "metallicFactor" : 0
            }
        },
        {
            "doubleSided" : true,
            "name" : "Material_1",
            "pbrMetallicRoughness" : {
                "baseColorFactor" : [
                    0.7450980544090271,
                    0.062745101749897,
                    0,
                    1
                ],
                "metallicFactor" : 0,
                "roughnessFactor" : 0.529411792755127
            }
        },
        {
            "doubleSided" : true,
            "name" : "Material_3",
            "pbrMetallicRoughness" : {
                "baseColorFactor" : [
                    0.019607843831181526,
                    0.003921568859368563,
                    0,
                    1
                ],
                "metallicFactor" : 0
            }
        }
    ],
    "meshes" : [
        {
            "name" : "Mesh_0.002",
            "primitives" : [
                {
                    "attributes" : {
                        "POSITION" : 0,
                        "TEXCOORD_0" : 1,
                        "NORMAL" : 2
                    },
                    "indices" : 3,
                    "material" : 0
                }
            ]
        },
        {
            "name" : "Mesh_6.002",
            "primitives" : [
                {
                    "attributes" : {
                        "POSITION" : 4,
                        "TEXCOORD_0" : 5,
                        "NORMAL" : 6
                    },
                    "indices" : 7,
                    "material" : 1
                }
            ]
        },
        {
            "name" : "Mesh_0",
            "primitives" : [
                {
                    "attributes" : {
                        "POSITION" : 8,
                        "TEXCOORD_0" : 9,
                        "NORMAL" : 10
                    },
                    "indices" : 11,
                    "material" : 2
                }
            ]
        },
        {
            "name" : "Mesh_2",
            "primitives" : [
                {
                    "attributes" : {
                        "POSITION" : 12,
                        "TEXCOORD_0" : 13,
                        "NORMAL" : 14
                    },
                    "indices" : 15,
                    "material" : 3
                }
            ]
        },
        {
            "name" : "Mesh_5",
            "primitives" : [
                {
                    "attributes" : {
                        "POSITION" : 16,
                        "TEXCOORD_0" : 17,
                        "NORMAL" : 18
                    },
                    "indices" : 19,
                    "material" : 4
                }
            ]
        }
    ],
    "accessors" : [
        {
            "bufferView" : 0,
            "componentType" : 5126,
            "count" : 230,
            "max" : [
                0.11026930809020996,
                0.018076933920383453,
                0.11026930809020996
            ],
            "min" : [
                -0.11026930809020996,
                -0.17207419872283936,
                -0.11026930063962936
            ],
            "type" : "VEC3"
        },
        {
            "bufferView" : 1,
            "componentType" : 5126,
            "count" : 230,
            "type" : "VEC2"
        },
        {
            "bufferView" : 2,
            "componentType" : 5126,
            "count" : 230,
            "type" : "VEC3"
        },
        {
            "bufferView" : 3,
            "componentType" : 5123,
            "count" : 252,
            "type" : "SCALAR"
        },
        {
            "bufferView" : 4,
            "componentType" : 5126,
            "count" : 3066,
            "max" : [
                0.007526111789047718,
                0.03763055428862572,
                0.0075112609192729
            ],
            "min" : [
                -0.007526111789047718,
                -0.03763055428862572,
                -0.007511259987950325
            ],
            "type" : "VEC3"
        },
        {
            "bufferView" : 5,
            "componentType" : 5126,
            "count" : 3066,
            "type" : "VEC2"
        },
        {
            "bufferView" : 6,
            "componentType" : 5126,
            "count" : 3066,
            "type" : "VEC3"
        },
        {
            "bufferView" : 7,
            "componentType" : 5123,
            "count" : 15900,
            "type" : "SCALAR"
        },
        {
            "bufferView" : 8,
            "componentType" : 5126,
            "count" : 718,
            "max" : [
                0.09597253799438477,
                0.01811387576162815,
                0.09659741818904877
            ],
            "min" : [
                -0.09595359116792679,
                0.006792688742280006,
                -0.09599047154188156
            ],
            "type" : "VEC3"
        },
        {
            "bufferView" : 9,
            "componentType" : 5126,
            "count" : 718,
            "type" : "VEC2"
        },
        {
            "bufferView" : 10,
            "componentType" : 5126,
            "count" : 718,
            "type" : "VEC3"
        },
        {
            "bufferView" : 11,
            "componentType" : 5123,
            "count" : 1392,
            "type" : "SCALAR"
        },
        {
            "bufferView" : 12,
            "componentType" : 5126,
            "count" : 1855,
            "max" : [
                0.07938234508037567,
                0.013585401698946953,
                0.07938235253095627
            ],
            "min" : [
                -0.07938231527805328,
                -2.296097179055323e-08,
                -0.07938230037689209
            ],
            "type" : "VEC3"
        },
        {
            "bufferView" : 13,
            "componentType" : 5126,
            "count" : 1855,
            "type" : "VEC2"
        },
        {
            "bufferView" : 14,
            "componentType" : 5126,
            "count" : 1855,
            "type" : "VEC3"
        },
        {
            "bufferView" : 15,
            "componentType" : 5123,
            "count" : 3978,
            "type" : "SCALAR"
        },
        {
            "bufferView" : 16,
            "componentType" : 5126,
            "count" : 30,
            "max" : [
                0.09509781002998352,
                0.006792700849473476,
                0.09509781002998352
            ],
            "min" : [
                -0.09509781002998352,
                0,
                -0.09509781002998352
            ],
            "type" : "VEC3"
        },
        {
            "bufferView" : 17,
            "componentType" : 5126,
            "count" : 30,
            "type" : "VEC2"
        },
        {
            "bufferView" : 18,
            "componentType" : 5126,
            "count" : 30,
            "type" : "VEC3"
        },
        {
            "bufferView" : 19,
            "componentType" : 5123,
            "count" : 36,
            "type" : "SCALAR"
        }
    ],
    "bufferViews" : [
        {
            "buffer" : 0,
            "byteLength" : 2760,
            "byteOffset" : 0,
            "target" : 34962
        },
        {
            "buffer" : 0,
            "byteLength" : 1840,
            "byteOffset" : 2760,
            "target" : 34962
        },
        {
            "buffer" : 0,
            "byteLength" : 2760,
            "byteOffset" : 4600,
            "target" : 34962
        },
        {
            "buffer" : 0,
            "byteLength" : 504,
            "byteOffset" : 7360,
            "target" : 34963
        },
        {
            "buffer" : 0,
            "byteLength" : 36792,
            "byteOffset" : 7864,
            "target" : 34962
        },
        {
            "buffer" : 0,
            "byteLength" : 24528,
            "byteOffset" : 44656,
            "target" : 34962
        },
        {
            "buffer" : 0,
            "byteLength" : 36792,
            "byteOffset" : 69184,
            "target" : 34962
        },
        {
            "buffer" : 0,
            "byteLength" : 31800,
            "byteOffset" : 105976,
            "target" : 34963
        },
        {
            "buffer" : 0,
            "byteLength" : 8616,
            "byteOffset" : 137776,
            "target" : 34962
        },
        {
            "buffer" : 0,
            "byteLength" : 5744,
            "byteOffset" : 146392,
            "target" : 34962
        },
        {
            "buffer" : 0,
            "byteLength" : 8616,
            "byteOffset" : 152136,
            "target" : 34962
        },
        {
            "buffer" : 0,
            "byteLength" : 2784,
            "byteOffset" : 160752,
            "target" : 34963
        },
        {
            "buffer" : 0,
            "byteLength" : 22260,
            "byteOffset" : 163536,
            "target" : 34962
        },
        {
            "buffer" : 0,
            "byteLength" : 14840,
            "byteOffset" : 185796,
            "target" : 34962
        },
        {
            "buffer" : 0,
            "byteLength" : 22260,
            "byteOffset" : 200636,
            "target" : 34962
        },
        {
            "buffer" : 0,
            "byteLength" : 7956,
            "byteOffset" : 222896,
            "target" : 34963
        },
        {
            "buffer" : 0,
            "byteLength" : 360,
            "byteOffset" : 230852,
            "target" : 34962
        },
        {
            "buffer" : 0,
            "byteLength" : 240,
            "byteOffset" : 231212,
            "target" : 34962
        },
        {
            "buffer" : 0,
            "byteLength" : 360,
            "byteOffset" : 231452,
            "target" : 34962
        },
        {
            "buffer" : 0,
            "byteLength" : 72,
            "byteOffset" : 231812,
            "target" : 34963
        }
    ],
    "buffers" : [
        {
            "byteLength" : 231884,
            "uri" : "data:application/octet-stream;base64,"
        }
    ]
}
