{
    "asset" : {
        "generator" : "Khronos glTF Blender I/O v3.4.50",
        "version" : "2.0"
    },
    "scene" : 0,
    "scenes" : [
        {
            "name" : "Scene",
            "nodes" : [
                9
            ]
        }
    ],
    "nodes" : [
        {
            "mesh" : 0,
            "name" : "Object_9"
        },
        {
            "children" : [
                0
            ],
            "name" : "Cusion_4"
        },
        {
            "children" : [
                1
            ],
            "name" : "Cusion_3",
            "scale" : [
                0.3937009871006012,
                0.3937009871006012,
                0.3937009871006012
            ],
            "translation" : [
                0,
                0.021188735961914062,
                0
            ]
        },
        {
            "mesh" : 1,
            "name" : "Object_6"
        },
        {
            "children" : [
                3
            ],
            "name" : "Wood_2"
        },
        {
            "children" : [
                4
            ],
            "name" : "Wood_1",
            "rotation" : [
                -0.70710688829422,
                0,
                0,
                0.7071066498756409
            ],
            "translation" : [
                0,
                0.021188735961914062,
                0
            ]
        },
        {
            "children" : [
                2,
                5
            ],
            "name" : "RootNode_0"
        },
        {
            "children" : [
                6
            ],
            "name" : "GLTF_SceneRootNode",
            "rotation" : [
                0.70710688829422,
                0,
                0,
                0.7071066498756409
            ]
        },
        {
            "children" : [
                7
            ],
            "name" : "root"
        },
        {
            "children" : [
                8
            ],
            "name" : "Sketchfab_model",
            "rotation" : [
                -0.70710688829422,
                0,
                0,
                0.7071066498756409
            ],
            "scale" : [
                0.07229524850845337,
                0.07229525595903397,
                0.07229525595903397
            ]
        }
    ],
    "materials" : [
        {
            "name" : "cusion",
            "pbrMetallicRoughness" : {}
        },
        {
            "name" : "Wood",
            "pbrMetallicRoughness" : {}
        }
    ],
    "meshes" : [
        {
            "name" : "Object_1",
            "primitives" : [
                {
                    "attributes" : {
                        "POSITION" : 0,
                        "TEXCOORD_0" : 1,
                        "TEXCOORD_1" : 2,
                        "TEXCOORD_2" : 3,
                        "TEXCOORD_3" : 4,
                        "TEXCOORD_4" : 5,
                        "NORMAL" : 6
                    },
                    "indices" : 7,
                    "material" : 0
                }
            ]
        },
        {
            "name" : "Object_0",
            "primitives" : [
                {
                    "attributes" : {
                        "POSITION" : 8,
                        "TEXCOORD_0" : 9,
                        "TEXCOORD_1" : 10,
                        "TEXCOORD_2" : 11,
                        "TEXCOORD_3" : 12,
                        "TEXCOORD_4" : 13,
                        "NORMAL" : 14
                    },
                    "indices" : 15,
                    "material" : 1
                }
            ]
        }
    ],
    "accessors" : [
        {
            "bufferView" : 0,
            "componentType" : 5126,
            "count" : 14872,
            "max" : [
                82.76602172851562,
                97.80816650390625,
                52.00416946411133
            ],
            "min" : [
                -82.53389739990234,
                21.451427459716797,
                -49.754337310791016
            ],
            "type" : "VEC3"
        },
        {
            "bufferView" : 1,
            "componentType" : 5126,
            "count" : 14872,
            "type" : "VEC2"
        },
        {
            "bufferView" : 2,
            "componentType" : 5126,
            "count" : 14872,
            "type" : "VEC2"
        },
        {
            "bufferView" : 3,
            "componentType" : 5126,
            "count" : 14872,
            "type" : "VEC2"
        },
        {
            "bufferView" : 4,
            "componentType" : 5126,
            "count" : 14872,
            "type" : "VEC2"
        },
        {
            "bufferView" : 5,
            "componentType" : 5126,
            "count" : 14872,
            "type" : "VEC2"
        },
        {
            "bufferView" : 6,
            "componentType" : 5126,
            "count" : 14872,
            "type" : "VEC3"
        },
        {
            "bufferView" : 7,
            "componentType" : 5123,
            "count" : 82944,
            "type" : "SCALAR"
        },
        {
            "bufferView" : 8,
            "componentType" : 5126,
            "count" : 7228,
            "max" : [
                36.458641052246094,
                20.009374618530273,
                32.73272705078125
            ],
            "min" : [
                -36.458641052246094,
                -19.981231689453125,
                -0.029882431030273438
            ],
            "type" : "VEC3"
        },
        {
            "bufferView" : 9,
            "componentType" : 5126,
            "count" : 7228,
            "type" : "VEC2"
        },
        {
            "bufferView" : 10,
            "componentType" : 5126,
            "count" : 7228,
            "type" : "VEC2"
        },
        {
            "bufferView" : 11,
            "componentType" : 5126,
            "count" : 7228,
            "type" : "VEC2"
        },
        {
            "bufferView" : 12,
            "componentType" : 5126,
            "count" : 7228,
            "type" : "VEC2"
        },
        {
            "bufferView" : 13,
            "componentType" : 5126,
            "count" : 7228,
            "type" : "VEC2"
        },
        {
            "bufferView" : 14,
            "componentType" : 5126,
            "count" : 7228,
            "type" : "VEC3"
        },
        {
            "bufferView" : 15,
            "componentType" : 5123,
            "count" : 29892,
            "type" : "SCALAR"
        }
    ],
    "bufferViews" : [
        {
            "buffer" : 0,
            "byteLength" : 178464,
            "byteOffset" : 0,
            "target" : 34962
        },
        {
            "buffer" : 0,
            "byteLength" : 118976,
            "byteOffset" : 178464,
            "target" : 34962
        },
        {
            "buffer" : 0,
            "byteLength" : 118976,
            "byteOffset" : 297440,
            "target" : 34962
        },
        {
            "buffer" : 0,
            "byteLength" : 118976,
            "byteOffset" : 416416,
            "target" : 34962
        },
        {
            "buffer" : 0,
            "byteLength" : 118976,
            "byteOffset" : 535392,
            "target" : 34962
        },
        {
            "buffer" : 0,
            "byteLength" : 118976,
            "byteOffset" : 654368,
            "target" : 34962
        },
        {
            "buffer" : 0,
            "byteLength" : 178464,
            "byteOffset" : 773344,
            "target" : 34962
        },
        {
            "buffer" : 0,
            "byteLength" : 165888,
            "byteOffset" : 951808,
            "target" : 34963
        },
        {
            "buffer" : 0,
            "byteLength" : 86736,
            "byteOffset" : 1117696,
            "target" : 34962
        },
        {
            "buffer" : 0,
            "byteLength" : 57824,
            "byteOffset" : 1204432,
            "target" : 34962
        },
        {
            "buffer" : 0,
            "byteLength" : 57824,
            "byteOffset" : 1262256,
            "target" : 34962
        },
        {
            "buffer" : 0,
            "byteLength" : 57824,
            "byteOffset" : 1320080,
            "target" : 34962
        },
        {
            "buffer" : 0,
            "byteLength" : 57824,
            "byteOffset" : 1377904,
            "target" : 34962
        },
        {
            "buffer" : 0,
            "byteLength" : 57824,
            "byteOffset" : 1435728,
            "target" : 34962
        },
        {
            "buffer" : 0,
            "byteLength" : 86736,
            "byteOffset" : 1493552,
            "target" : 34962
        },
        {
            "buffer" : 0,
            "byteLength" : 59784,
            "byteOffset" : 1580288,
            "target" : 34963
        }
    ],
    "buffers" : [
        {
            "byteLength" : 1640072,
            "uri" : "data:application/octet-stream;base64,"
        }
    ]
}
